<?xml version="1.0" encoding="UTF-8"?>
<!-- Generator: Adobe Illustrator 19.1.0, SVG Export Plug-In . SVG Version: 6.00 Build 0)  -->
<svg xmlns="http://www.w3.org/2000/svg" xmlns:xlink="http://www.w3.org/1999/xlink" xmlns:dc="http://purl.org/dc/elements/1.1/" xmlns:cc="http://creativecommons.org/ns#" xmlns:rdf="http://www.w3.org/1999/02/22-rdf-syntax-ns#" version="1.1" id="DESIGNS" x="0px" y="0px" width="32px" height="32px" viewBox="0 0 32 32" style="enable-background:new 0 0 32 32;" xml:space="preserve">
<title property="dc:title">to guide</title><desc property="dc:description">An icon for "guide" from the Avocado series on to [icon]. Downloaded from http://www.toicon.com/icons/avocado_guide by 31.173.83.223 on 2017-02-28. Licensed CC-BY, see http://toicon.com/license/ for details.</desc>
<g>
	<path class="avocado_zes" d="M10.556,31.5l1.895-18h9.1l1.895,18H10.556z M21.5,6.5h-9v5h9V6.5z" style="fill: #FFFAEE;"/>
	<path class="avocado_zeventien" d="M11.884,18.884L23.32,30.32l0.124,1.18H21.5l-9.902-9.902L11.884,18.884z M15.5,13.5   l6.761,6.761l-0.353-3.353L18.5,13.5H15.5z" style="fill: #CC4121;"/>
	<g>
		<g>
			<path class="avocado_twee" d="M11.5,13.5v-2h11v2H11.5z M22.5,6.5V6.207l-5.5-5.5l-5.5,5.5V6.5H22.5z" style="fill: #3D3935;"/>
		</g>
	</g>
	<path class="avocado_elf" d="M15.5,31.5l-4.474-4.474l0.286-2.714L18.5,31.5H15.5z M22.967,26.967l-0.353-3.353L12.455,13.45   l-0.285,2.719L22.967,26.967z" style="fill: #0E608E;"/>
	<path class="avocado_een" d="M24,32l-1.895-18H23v-3h-1V7h1V6l-6-6l-6,6v1h1v4h-1v3h0.895L10,32H24z M17,1.414L21.586,6   h-9.172L17,1.414z M13,7h8v4h-8V7z M12,12h10v1H12V12z M21.1,14l1.789,17H11.111L12.9,14H21.1z" style="fill: #231F20;"/>
</g>
<metadata><work rdf:about=""><format>image/svg+xml</format><type rdf:resource="http://purl.org/dc/dcmitype/StillImage"/><license rdf:resource="http://creativecommons.org/licenses/by/4.0/"/><attributionname>Shannon E Thomas</attributionname><attributionurl>http://www.toicon.com/icons/avocado_guide</attributionurl></work></metadata></svg>
